<svg xmlns="http://www.w3.org/2000/svg" width="320" height="258" viewBox="0 0 320 258" fill="none"><path d="M42.0388 154.698C42.0388 154.698 67.1313 149.278 67.8097 130.963C68.488 112.647 67.8097 87.8299 67.8097 87.8299C67.8097 87.8299 74.257 111.633 93.2444 111.633C112.232 111.633 118.337 98.0722 119.015 89.2538C119.694 80.4353 119.015 48.1194 119.015 48.1194C119.015 48.1194 128.512 72.3013 143.429 72.3013H175.984C175.984 72.3013 151.233 80.7776 151.233 99.0867V112.654C151.233 112.654 142.751 107.557 132.582 107.557C122.413 107.557 104.776 115.697 101.415 129.264C101.415 129.264 98.7017 131.299 99.3801 178.764C99.3801 178.764 94.6317 153.672 69.5392 154.32C44.4466 154.967 42.0694 154.656 42.0694 154.656" fill="#F1D158"></path><path d="M88.8321 106.548C94.4517 106.548 99.0072 101.993 99.0072 96.3734C99.0072 90.7538 94.4517 86.1982 88.8321 86.1982C83.2125 86.1982 78.657 90.7538 78.657 96.3734C78.657 101.993 83.2125 106.548 88.8321 106.548Z" fill="#F1D158"></path><path d="M140.38 66.5385C146 66.5385 150.555 61.9829 150.555 56.3634C150.555 50.7438 146 46.1882 140.38 46.1882C134.76 46.1882 130.205 50.7438 130.205 56.3634C130.205 61.9829 134.76 66.5385 140.38 66.5385Z" fill="#F1D158"></path><path d="M137.331 121.808C112.232 121.808 112.574 143.197 112.574 143.197V194.739H124.797V170.3H148.539V194.715H160.761V143.173C160.761 143.173 159.698 121.808 137.331 121.808ZM124.778 158.769V143.173C124.778 143.173 124.442 133.34 137.331 133.34C148.856 133.34 148.52 143.173 148.52 143.173V158.769H124.778Z" fill="#1A2E49"></path><path d="M177.279 193.932C174.212 192.415 171.581 190.141 169.634 187.326L177.713 181.319C178.607 182.951 179.972 184.275 181.631 185.12C183.471 186.054 185.514 186.517 187.577 186.471C191.415 186.471 194.389 185.238 196.499 182.773C198.609 180.308 199.665 176.845 199.665 172.384V122.768H209.528V172.409C209.528 177.452 208.675 181.757 206.968 185.322C205.38 188.757 202.758 191.609 199.469 193.48C196.181 195.35 192.217 196.285 187.577 196.285C184.007 196.323 180.479 195.516 177.279 193.932Z" fill="#1A2E49" stroke="#1A2E49" stroke-width="2" stroke-miterlimit="10"></path><path d="M241.013 192.93C237.134 190.708 233.987 187.403 231.956 183.421C229.821 179.315 228.754 174.56 228.754 169.158V149.192C228.754 143.786 229.825 139.032 231.968 134.929C234 130.941 237.147 127.629 241.025 125.396C245.159 123.08 249.837 121.913 254.574 122.016C258.637 121.968 262.654 122.877 266.301 124.668C269.853 126.438 272.925 129.04 275.254 132.252C277.704 135.631 279.374 139.511 280.143 143.613H269.46C268.832 141.376 267.727 139.302 266.222 137.532C264.759 135.789 262.94 134.38 260.887 133.401C258.63 132.339 256.146 131.848 253.655 131.971C251.164 132.093 248.74 132.826 246.599 134.104C244.294 135.57 242.454 137.662 241.294 140.136C239.983 142.963 239.337 146.053 239.406 149.168V169.158C239.342 172.265 239.988 175.346 241.294 178.166C242.443 180.646 244.285 182.741 246.599 184.197C248.992 185.644 251.747 186.382 254.543 186.324C256.733 186.327 258.899 185.867 260.899 184.973C262.944 184.052 264.757 182.685 266.203 180.971C267.747 179.141 268.854 176.984 269.442 174.664H280.106C279.344 178.768 277.674 182.65 275.217 186.025C272.873 189.234 269.792 191.833 266.234 193.602C262.605 195.407 258.601 196.326 254.549 196.285C249.82 196.385 245.148 195.227 241.013 192.93Z" fill="#1A2E49" stroke="#1A2E49" stroke-width="0.75" stroke-miterlimit="10"></path><path d="M114.279 209.284H116.21V222.796H114.279V209.284ZM115.226 209.284H122.951V211.117H115.226V209.284ZM115.226 215.309H121.906V217.112H115.226V215.309Z" fill="#1A2E49" stroke="#1A2E49" stroke-miterlimit="10"></path><path d="M134.892 222.319C134.166 221.916 133.575 221.308 133.193 220.571C132.775 219.764 132.564 218.865 132.582 217.955V214.13C132.565 213.219 132.775 212.318 133.193 211.508C133.575 210.773 134.167 210.167 134.892 209.766C135.676 209.358 136.547 209.145 137.431 209.145C138.315 209.145 139.186 209.358 139.971 209.766C140.696 210.169 141.288 210.775 141.676 211.508C142.091 212.319 142.301 213.219 142.287 214.13V217.955C142.302 218.864 142.092 219.763 141.676 220.571C141.289 221.307 140.697 221.914 139.971 222.319C139.186 222.725 138.315 222.936 137.431 222.936C136.548 222.936 135.677 222.725 134.892 222.319ZM138.938 220.693C139.368 220.441 139.717 220.07 139.94 219.624C140.186 219.127 140.307 218.577 140.294 218.023V214.063C140.307 213.508 140.186 212.959 139.94 212.462C139.717 212.015 139.368 211.644 138.938 211.392C138.476 211.143 137.959 211.013 137.434 211.013C136.91 211.013 136.393 211.143 135.931 211.392C135.497 211.64 135.148 212.013 134.929 212.462C134.681 212.958 134.557 213.508 134.568 214.063V218.023C134.557 218.578 134.681 219.127 134.929 219.624C135.148 220.073 135.497 220.445 135.931 220.693C136.393 220.942 136.91 221.072 137.434 221.072C137.959 221.072 138.476 220.942 138.938 220.693Z" fill="#1A2E49" stroke="#1A2E49" stroke-miterlimit="10"></path><path d="M152.975 209.278H154.906V222.795H152.975V209.278ZM153.818 215.279H158.475C158.818 215.285 159.157 215.196 159.453 215.022C159.737 214.841 159.965 214.585 160.113 214.283C160.272 213.936 160.351 213.558 160.345 213.176C160.351 212.797 160.272 212.421 160.113 212.076C159.969 211.774 159.742 211.517 159.459 211.337C159.162 211.16 158.821 211.071 158.475 211.08H153.776V209.278H158.402C159.13 209.261 159.851 209.427 160.498 209.76C161.092 210.067 161.581 210.544 161.904 211.129C162.242 211.758 162.413 212.463 162.399 213.176C162.414 213.893 162.242 214.601 161.897 215.23C161.57 215.811 161.082 216.287 160.492 216.599C159.846 216.931 159.128 217.097 158.402 217.082H153.776L153.818 215.279ZM157.571 216.666L159.496 216.238L163.022 222.795H160.73L157.571 216.666Z" fill="#1A2E49" stroke="#1A2E49" stroke-miterlimit="10"></path><path d="M183.256 209.284H185.089V222.796H183.207V212.669L183.299 213.28L179.864 220.919H178.52L175.128 213.458L175.22 212.675V222.796H173.332V209.284H175.165L179.211 218.206L183.256 209.284Z" fill="#1A2E49" stroke="#1A2E49" stroke-miterlimit="10"></path><path d="M199.787 209.284H201.437L206.515 222.796H204.431L200.642 211.899L196.823 222.796H194.739L199.787 209.284ZM197.049 218.029H204.309V219.862H197.049V218.029Z" fill="#1A2E49" stroke="#1A2E49" stroke-miterlimit="10"></path><path d="M214.087 209.284H223.81V211.117H214.087V209.284ZM217.98 210.39H219.917V222.796H217.98V210.39Z" fill="#1A2E49" stroke="#1A2E49" stroke-miterlimit="10"></path><path d="M235.366 222.796H233.429V209.284H235.366V222.796Z" fill="#1A2E49" stroke="#1A2E49" stroke-miterlimit="10"></path><path d="M248.536 222.319C247.812 221.913 247.222 221.306 246.837 220.571C246.418 219.764 246.208 218.865 246.226 217.955V214.13C246.209 213.219 246.419 212.318 246.837 211.508C247.221 210.774 247.812 210.169 248.536 209.766C249.321 209.357 250.193 209.144 251.078 209.144C251.963 209.144 252.835 209.357 253.62 209.766C254.343 210.17 254.934 210.775 255.319 211.508C255.737 212.318 255.947 213.219 255.93 214.13V217.955C255.948 218.865 255.738 219.764 255.319 220.571C254.934 221.306 254.344 221.913 253.62 222.319C252.834 222.724 251.963 222.936 251.078 222.936C250.194 222.936 249.322 222.724 248.536 222.319ZM252.582 220.693C253.014 220.443 253.363 220.071 253.584 219.624C253.829 219.126 253.951 218.577 253.938 218.023V214.063C253.951 213.508 253.829 212.959 253.584 212.461C253.363 212.014 253.014 211.642 252.582 211.392C252.119 211.143 251.603 211.013 251.078 211.013C250.553 211.013 250.037 211.143 249.575 211.392C249.143 211.642 248.794 212.014 248.573 212.461C248.327 212.959 248.205 213.508 248.218 214.063V218.023C248.205 218.577 248.327 219.126 248.573 219.624C248.794 220.071 249.143 220.443 249.575 220.693C250.037 220.942 250.553 221.072 251.078 221.072C251.603 221.072 252.119 220.942 252.582 220.693Z" fill="#1A2E49" stroke="#1A2E49" stroke-miterlimit="10"></path><path d="M266.6 209.284H268.354L275.077 219.734L274.85 219.972V209.284H276.763V222.789H274.991L268.269 212.498L268.501 212.26V222.789H266.582L266.6 209.284Z" fill="#1A2E49" stroke="#1A2E49" stroke-miterlimit="10"></path><path d="M115.422 41.1161C109.678 37.3253 103.31 34.578 96.6118 33.0004C90.0048 31.4551 83.1736 31.1114 76.4449 31.986C62.9957 33.7358 50.6575 40.3637 41.7732 50.6112C32.8889 60.8587 28.0773 74.012 28.2521 87.5733C28.3263 94.3588 29.6265 101.075 32.0899 107.398C34.5966 113.803 38.2081 119.719 42.76 124.876C37.5836 120.157 33.3959 114.457 30.4399 108.107C24.4268 95.0753 23.6781 80.2251 28.3498 66.6547C33.0934 53.0042 42.9047 41.7007 55.7524 35.0844C62.0957 31.8154 69.0131 29.8084 76.121 29.1748C77.8871 29.0343 79.6594 28.9365 81.4316 28.9548C83.1992 28.9528 84.9656 29.0426 86.7239 29.2237C90.2335 29.5783 93.7005 30.2721 97.0762 31.2954C103.782 33.3205 110.018 36.6588 115.422 41.1161Z" fill="#F1D158"></path></svg>